<svg xmlns="http://www.w3.org/2000/svg" xmlns:xlink="http://www.w3.org/1999/xlink" width="209" height="129" viewBox="0 0 209 129">
    <defs>
        <path id="a" d="M.268.456L3.58 2.093c.651.323 1.713.32 2.36 0L8.072 1.04c.651-.322 1.713-.32 2.36 0l2.132 1.054c.651.323 1.713.32 2.36 0l2.132-1.054c.651-.322 1.713-.32 2.36 0l2.132 1.054c.651.323 1.712.334 2.37.024l2.336-1.1c.658-.31 1.714-.289 2.357.046l1.935 1.007c.644.335 1.699.344 2.346.023l2.132-1.054c.651-.322 1.713-.32 2.36 0l2.132 1.054c.651.323 1.713.32 2.36 0L45.188.456l-6.996 17.299c-1.098 2.715-4.32 5.283-7.218 5.55 0 0 1.636.255-8.232.255-9.869 0-8.257-.256-8.257-.256-2.89-.349-6.123-2.833-7.221-5.549L.268.455z"/>
        <linearGradient id="c" x1="50%" x2="50%" y1="0%" y2="100%">
            <stop offset="0%" stop-color="#FCF7E0"/>
            <stop offset="100%" stop-color="#FFF1D5"/>
        </linearGradient>
        <path id="d" d="M21.43 34.978s-3.209 2.07-5.615 1.81C13.408 36.53 11 34.72 11 34.72s-2.942 1.034-5.616 1.034c-2.674 0-5.207-1.673-5.144-4.975.063-8.732 8.086-13.646 8.086-13.646s.203-2.586 2.508-4.914c2.305-2.327 4.98-2.586 4.98-2.586s2.075-3.62 5.017-5.948C23.773 1.357 28.384.323 28.384.323s-3.21 5.172 4.546 9.569c7.755 4.396 11.766 9.31 12.836 11.38 1.07 2.068 2.674 5.43 1.872 8.534-.802 3.103-2.013 6.729-7.869 6.729-5.855 0-6.84-1.557-6.84-1.557 0-.258-2.673 2.328-6.15 2.328-3.476 0-5.348-2.328-5.348-2.328z"/>
        <path id="f" d="M21.43 34.978s-3.209 2.07-5.615 1.81C13.408 36.53 11 34.72 11 34.72s-2.942 1.034-5.616 1.034c-2.674 0-5.207-1.673-5.144-4.975.063-8.732 8.086-13.646 8.086-13.646s.203-2.586 2.508-4.914c2.305-2.327 4.98-2.586 4.98-2.586s2.075-3.62 5.017-5.948C23.773 1.357 28.384.323 28.384.323s-3.21 5.172 4.546 9.569c7.755 4.396 11.766 9.31 12.836 11.38 1.07 2.068 2.674 5.43 1.872 8.534-.802 3.103-2.013 6.729-7.869 6.729-5.855 0-6.84-1.557-6.84-1.557 0-.258-2.673 2.328-6.15 2.328-3.476 0-5.348-2.328-5.348-2.328z"/>
        <path id="h" d="M21.43 34.978s-3.209 2.07-5.615 1.81C13.408 36.53 11 34.72 11 34.72s-2.942 1.034-5.616 1.034c-2.674 0-5.207-1.673-5.144-4.975.063-8.732 8.086-13.646 8.086-13.646s.203-2.586 2.508-4.914c2.305-2.327 4.98-2.586 4.98-2.586s2.075-3.62 5.017-5.948C23.773 1.357 28.384.323 28.384.323s-3.21 5.172 4.546 9.569c7.755 4.396 11.766 9.31 12.836 11.38 1.07 2.068 2.674 5.43 1.872 8.534-.802 3.103-2.013 6.729-7.869 6.729-5.855 0-6.84-1.557-6.84-1.557 0-.258-2.673 2.328-6.15 2.328-3.476 0-5.348-2.328-5.348-2.328z"/>
        <path id="j" d="M21.43 34.978s-3.209 2.07-5.615 1.81C13.408 36.53 11 34.72 11 34.72s-2.942 1.034-5.616 1.034c-2.674 0-5.207-1.673-5.144-4.975.063-8.732 8.086-13.646 8.086-13.646s.203-2.586 2.508-4.914c2.305-2.327 4.98-2.586 4.98-2.586s2.075-3.62 5.017-5.948C23.773 1.357 28.384.323 28.384.323s-3.21 5.172 4.546 9.569c7.755 4.396 11.766 9.31 12.836 11.38 1.07 2.068 2.674 5.43 1.872 8.534-.802 3.103-2.013 6.729-7.869 6.729-5.855 0-6.84-1.557-6.84-1.557 0-.258-2.673 2.328-6.15 2.328-3.476 0-5.348-2.328-5.348-2.328z"/>
        <path id="l" d="M21.43 34.978s-3.209 2.07-5.615 1.81C13.408 36.53 11 34.72 11 34.72s-2.942 1.034-5.616 1.034c-2.674 0-5.207-1.673-5.144-4.975.063-8.732 8.086-13.646 8.086-13.646s.203-2.586 2.508-4.914c2.305-2.327 4.98-2.586 4.98-2.586s2.075-3.62 5.017-5.948C23.773 1.357 28.384.323 28.384.323s-3.21 5.172 4.546 9.569c7.755 4.396 11.766 9.31 12.836 11.38 1.07 2.068 2.674 5.43 1.872 8.534-.802 3.103-2.013 6.729-7.869 6.729-5.855 0-6.84-1.557-6.84-1.557 0-.258-2.673 2.328-6.15 2.328-3.476 0-5.348-2.328-5.348-2.328z"/>
        <path id="n" d="M21.43 34.978s-3.209 2.07-5.615 1.81C13.408 36.53 11 34.72 11 34.72s-2.942 1.034-5.616 1.034c-2.674 0-5.207-1.673-5.144-4.975.063-8.732 8.086-13.646 8.086-13.646s.203-2.586 2.508-4.914c2.305-2.327 4.98-2.586 4.98-2.586s2.075-3.62 5.017-5.948C23.773 1.357 28.384.323 28.384.323s-3.21 5.172 4.546 9.569c7.755 4.396 11.766 9.31 12.836 11.38 1.07 2.068 2.674 5.43 1.872 8.534-.802 3.103-2.013 6.729-7.869 6.729-5.855 0-6.84-1.557-6.84-1.557 0-.258-2.673 2.328-6.15 2.328-3.476 0-5.348-2.328-5.348-2.328z"/>
        <path id="p" d="M21.43 34.978s-3.209 2.07-5.615 1.81C13.408 36.53 11 34.72 11 34.72s-2.942 1.034-5.616 1.034c-2.674 0-5.207-1.673-5.144-4.975.063-8.732 8.086-13.646 8.086-13.646s.203-2.586 2.508-4.914c2.305-2.327 4.98-2.586 4.98-2.586s2.075-3.62 5.017-5.948C23.773 1.357 28.384.323 28.384.323s-3.21 5.172 4.546 9.569c7.755 4.396 11.766 9.31 12.836 11.38 1.07 2.068 2.674 5.43 1.872 8.534-.802 3.103-2.013 6.729-7.869 6.729-5.855 0-6.84-1.557-6.84-1.557 0-.258-2.673 2.328-6.15 2.328-3.476 0-5.348-2.328-5.348-2.328z"/>
        <path id="r" d="M21.43 34.978s-3.209 2.07-5.615 1.81C13.408 36.53 11 34.72 11 34.72s-2.942 1.034-5.616 1.034c-2.674 0-5.207-1.673-5.144-4.975.063-8.732 8.086-13.646 8.086-13.646s.203-2.586 2.508-4.914c2.305-2.327 4.98-2.586 4.98-2.586s2.075-3.62 5.017-5.948C23.773 1.357 28.384.323 28.384.323s-3.21 5.172 4.546 9.569c7.755 4.396 11.766 9.31 12.836 11.38 1.07 2.068 2.674 5.43 1.872 8.534-.802 3.103-2.013 6.729-7.869 6.729-5.855 0-6.84-1.557-6.84-1.557 0-.258-2.673 2.328-6.15 2.328-3.476 0-5.348-2.328-5.348-2.328z"/>
        <path id="t" d="M21.43 34.978s-3.209 2.07-5.615 1.81C13.408 36.53 11 34.72 11 34.72s-2.942 1.034-5.616 1.034c-2.674 0-5.207-1.673-5.144-4.975.063-8.732 8.086-13.646 8.086-13.646s.203-2.586 2.508-4.914c2.305-2.327 4.98-2.586 4.98-2.586s2.075-3.62 5.017-5.948C23.773 1.357 28.384.323 28.384.323s-3.21 5.172 4.546 9.569c7.755 4.396 11.766 9.31 12.836 11.38 1.07 2.068 2.674 5.43 1.872 8.534-.802 3.103-2.013 6.729-7.869 6.729-5.855 0-6.84-1.557-6.84-1.557 0-.258-2.673 2.328-6.15 2.328-3.476 0-5.348-2.328-5.348-2.328z"/>
    </defs>
    <g fill="none" fill-rule="evenodd">
        <path fill="#FFF" fill-rule="nonzero" d="M22.672 65.767v12.468L188.591 84s1.42-10.166-1.033-14.055c-2.453-3.888-31.358-37.82-45.954-31.056-18.589 8.614-35.896 0-35.896 0l-27.364 2.022L19 43.859l3.672 21.908z"/>
        <path fill="#FFF" fill-rule="nonzero" d="M23.838 103.577C17.339 103.577 12 98.899 12 92.284c0-.121 0-.185.002-.286a9.9 9.9 0 0 1 .206-1.939l3.011-17.025c1.062-6.027 6.005-10.492 12.447-10.492 2.772 0 5.298.792 7.41 2.385.66.497 1.235 1.035 1.76 1.621.948-.885 1.797-1.545 2.904-2.189 2.044-1.189 4.325-1.817 6.809-1.817 6.46 0 11.995 4.666 11.995 11.345 0 .125 0 .187-.002.29a9.825 9.825 0 0 1-.206 1.886l-3.012 17.021c-1.07 6.073-6.229 10.493-12.604 10.493-3.772 0-7.153-1.576-9.326-4.192-2.33 2.594-5.723 4.192-9.556 4.192zm46.576-29.378h.525c.314-1.824 1.993-3.387 4.09-3.387 2.099 0 3.515 1.25 3.515 3.023 0 .208 0 .416-.053.625L75.45 91.658c-.367 2.085-2.045 3.649-4.406 3.649-1.888 0-3.304-1.303-3.304-2.867 0-.156 0-.365.052-.521h-.524s-2.203 3.388-6.084 3.388c-4.616 0-8.13-3.284-8.13-9.434 0-9.902 5.822-15.061 10.805-15.061 5.14 0 6.556 3.387 6.556 3.387zm4.616-11.657c6.448 0 11.837 4.671 11.837 11.293 0 .12 0 .184-.002.285a9.9 9.9 0 0 1-.206 1.939l-3.011 17.025c-1.07 6.073-6.23 10.493-12.605 10.493-1.64 0-3.218-.327-4.656-.924-1.602.593-3.34.924-5.204.924-9.651 0-16.454-7.429-16.454-17.704 0-6.487 1.902-12.207 5.412-16.476 3.534-4.298 8.528-6.855 13.717-6.855 1.845 0 3.574.254 5.164.734.328.099.65.207.966.325a14.97 14.97 0 0 1 4.485 2.62c1.843 1.565 2.984 3.266 3.628 4.806l-7.687 3.172v-8.27h.525v8.27l-8.204-1.397c.712-4.124 3.508-7.551 7.253-9.201a12.48 12.48 0 0 1 5.042-1.06zm32.416 22.844c-4.224-1.809-7.093-5.948-7.093-10.738 0-7.132 6.274-12.648 13.254-12.648h18.882c6.646 0 11.89 5.32 11.89 11.71 0 6.545-5.283 11.729-11.547 12.538l-1.31 7.07c-1.101 6.117-6.83 10.708-13.12 10.708-6.537 0-12.048-4.933-12.048-11.553 0-.121 0-.185.002-.286.003-.177.01-.353.021-.543a9.89 9.89 0 0 1 .19-1.423l.88-4.835zm3.811 3.719c0 8.285-8.685 14.993-18.289 14.993-11.36 0-19.863-8.014-19.863-19.319 0-12.67 9.792-22.759 21.751-22.759 4.893 0 9.254 1.276 12.616 3.708 3.669 2.654 5.988 6.608 5.988 10.92 0 3.082-1.216 5.813-3.16 7.872a11.24 11.24 0 0 1 .957 4.585zm54.345.156c0 4.383-2.523 8.313-6.288 10.998-3.465 2.472-7.914 3.839-12.787 3.839-10.663 0-18.919-8.374-18.919-19.006 0-12.85 10.875-23.072 23.062-23.072 5.012 0 9.215 1.127 12.462 3.727 3.578 2.866 5.303 6.99 5.303 11.58 0 3.271-1.2 6.29-3.261 8.858.28.97.428 2 .428 3.076zM164.864 114c-6.448 0-11.838-4.672-11.838-11.293 0-.121 0-.185.002-.285.003-.178.01-.354.021-.544a9.9 9.9 0 0 1 .185-1.394l4.847-27.45c1.07-6.073 6.23-10.492 12.605-10.492 1.64 0 3.219.326 4.657.923a14.894 14.894 0 0 1 5.204-.923c9.65 0 16.453 7.428 16.453 17.703 0 6.437-1.889 12.141-5.37 16.411-3.532 4.33-8.535 6.92-13.758 6.92-.14 0-.278 0-.415-.003-1.095 6.04-6.24 10.427-12.593 10.427z"/>
        <path fill="#FFF" fill-rule="nonzero" d="M84.469 28.643c-2.433-1.505-5.34-2.346-8.57-2.346a14.75 14.75 0 0 0-5.142.91c-1.42-.588-2.981-.91-4.6-.91-3.61 0-6.824 1.43-9.11 3.776-3.345-2.698-7.67-4.29-12.5-4.29-.36 0-.718.01-1.074.029C43.093 19.843 38.06 15 31.749 15H13.094C6.198 15 0 20.435 0 27.462c0 4.821 2.958 8.974 7.28 10.693L4.61 53.151c-.097.47-.154.922-.182 1.371a11.15 11.15 0 0 0-.023.824c0 6.523 5.444 11.384 11.902 11.384 4.668 0 8.85-2.534 11.131-6.286 3.6 4.197 8.985 6.8 14.933 6.8 2.194 0 4.326-.35 6.344-1C48.913 72.57 54.155 77 60.405 77c6.275 0 11.359-4.323 12.44-10.274.136.002.273.004.41.004 4.833 0 9.475-2.238 12.91-6.027 1.852 4.08 6.104 6.782 10.92 6.782 6.183 0 11.818-4.48 12.946-10.462 3.29 6.16 9.842 10.22 17.273 10.22 11.717 0 21.696-9.99 21.696-22.167 0-10.906-8.435-19.292-19.52-19.292-3.913 0-7.632 1.114-10.85 3.052a11.796 11.796 0 0 0-7.628-2.76H92.347c-2.882 0-5.641.949-7.878 2.567z"/>
        <path fill="#0CC9BE" fill-rule="nonzero" d="M33.132 89.253h-.105c-1.78 0-2.355-1.286-2.355-1.286l-2.198-3.601-1.57 8.745c-.367 2.058-2.042 3.6-4.397 3.6-2.146 0-3.507-1.234-3.507-2.983 0-.206 0-.411.052-.617l3.036-16.976c.367-2.057 1.884-3.6 4.24-3.6 2.146 0 2.93 1.08 3.768 2.314l4.135 6.173 6.333-6.173c1.309-1.286 2.513-2.314 4.606-2.314 2.146 0 3.664 1.286 3.664 3.035 0 .205 0 .36-.052.565l-3.036 16.976c-.366 2.058-2.041 3.6-4.396 3.6-2.146 0-3.507-1.234-3.507-2.983 0-.206 0-.411.052-.617l1.57-8.848-3.559 3.704s-.994 1.286-2.774 1.286zm80.077 4.045l2.495-13.582h-4.977c-2.146 0-3.56-1.595-3.56-3.395 0-2.315 2.356-4.321 4.92-4.321h18.844c2.093 0 3.559 1.646 3.559 3.395 0 2.315-2.356 4.321-4.92 4.321h-5.234l-2.544 13.582c-.366 2.057-2.564 3.858-4.92 3.858-2.146 0-3.716-1.44-3.716-3.241 0-.206 0-.412.053-.617zm-19.8-14.59c4.03 0 2.512 3.086 6.542 3.086 2.146 0 4.03-1.595 4.03-3.498 0-2.778-3.402-6.276-10.258-6.276-6.962 0-13.4 5.916-13.4 14.3 0 6.637 4.763 10.906 11.515 10.906 6.02 0 9.945-3.96 9.945-6.636 0-1.749-1.466-3.138-3.664-3.138-2.983 0-3.036 3.087-6.071 3.087-1.99 0-3.769-1.44-3.769-4.578 0-2.984 1.78-7.254 5.13-7.254zm65.086.257c0 4.218-6.02 9.002-16.383 9.26.419 1.542 1.466 2.828 3.664 2.828 3.14 0 4.292-2.829 6.909-2.829 2.094 0 2.983 1.183 2.983 2.52 0 2.624-3.925 6.482-10.73 6.482-6.019 0-10.572-4.578-10.572-10.597 0-8.539 7.537-14.609 14.707-14.609 6.7 0 9.422 2.675 9.422 6.945zm-10.625-.618c-3.036 0-4.92 2.675-5.653 5.402 2.25-.258 8.322-1.44 8.322-3.807 0-.772-.471-1.595-2.67-1.595zm27.772.875c-2.879 0-4.763 3.704-4.763 6.481 0 2.675 1.623 4.321 3.245 4.321 2.041 0 4.868-2.52 4.868-6.481 0-2.675-1.727-4.321-3.35-4.321zm-5.757 14.403h-.524l-1.727 9.774c-.367 2.058-2.041 3.601-4.397 3.601-2.093 0-3.507-1.235-3.507-2.984 0-.205 0-.411.053-.617l4.867-27.264c.367-2.057 2.042-3.6 4.397-3.6 1.884 0 3.298 1.286 3.298 2.829 0 .154 0 .36-.053.514h.524s2.198-3.343 6.071-3.343c4.606 0 8.113 3.24 8.113 9.31 0 9.671-5.758 14.867-10.782 14.867-5.182 0-6.333-3.087-6.333-3.087zM69.408 76.223h.524c.314-1.8 1.989-3.343 4.082-3.343 2.094 0 3.507 1.234 3.507 2.983 0 .206 0 .412-.052.617l-3.036 16.976c-.366 2.058-2.041 3.6-4.396 3.6-1.885 0-3.298-1.285-3.298-2.828 0-.155 0-.36.052-.515h-.523s-2.198 3.344-6.072 3.344c-4.606 0-8.112-3.241-8.112-9.311 0-9.774 5.81-14.866 10.782-14.866 5.13 0 6.542 3.343 6.542 3.343zm-4.449 3.344c-2.983 0-4.815 3.755-4.815 6.43s1.727 4.321 3.35 4.321c1.937 0 4.71-2.418 4.71-6.379 0-2.726-1.622-4.372-3.245-4.372z"/>
        <path fill="#FF5EAF" fill-rule="nonzero" d="M11.505 53.787l4.296-24.034h-5.239C8.414 29.753 7 28.15 7 26.342 7 24.016 9.357 22 11.924 22h18.859c2.095 0 3.562 1.654 3.562 3.411 0 2.326-2.358 4.342-4.924 4.342h-5.239l-4.295 24.034c-.367 2.067-2.358 3.876-4.715 3.876-2.148 0-3.72-1.447-3.72-3.256 0-.207 0-.414.053-.62zm26.506-7.288c0 2.016 1.257 4.497 3.98 4.497 2.358 0 5.24-2.533 5.24-6.461 0-2.74-1.782-4.497-3.982-4.497-2.357 0-5.238 2.533-5.238 6.46zm3.51 11.68c-6.025 0-11.42-4.6-11.42-11.215 0-8.011 6.652-14.11 13.62-14.11 6.652 0 11.42 4.807 11.42 11.216 0 8.01-6.653 14.11-13.62 14.11zm30.645-18.09c-2.882 0-4.767 3.722-4.767 6.513 0 2.688 1.623 4.342 3.247 4.342 2.043 0 4.872-2.533 4.872-6.513 0-2.687-1.729-4.341-3.352-4.341zm-5.763 14.473h-.524l-1.728 9.82C63.784 66.449 62.108 68 59.75 68c-2.096 0-3.51-1.24-3.51-2.998 0-.206 0-.413.052-.62l4.872-27.393c.366-2.068 2.043-3.618 4.4-3.618 1.886 0 3.3 1.292 3.3 2.842 0 .156 0 .362-.052.517h.524s2.2-3.36 6.076-3.36c4.61 0 8.12 3.257 8.12 9.356 0 9.717-5.762 14.937-10.791 14.937-5.186 0-6.339-3.101-6.339-3.101zm57.467-8.063c0 2.016 1.257 4.497 3.981 4.497 2.358 0 5.239-2.533 5.239-6.461 0-2.74-1.781-4.497-3.981-4.497-2.358 0-5.239 2.533-5.239 6.46zm3.51 11.68c-6.024 0-11.42-4.6-11.42-11.215 0-8.011 6.653-14.11 13.62-14.11 6.653 0 11.42 4.807 11.42 11.216 0 8.01-6.653 14.11-13.62 14.11zm-33.793-3.292l2.498-13.646h-4.982c-2.148 0-3.562-1.602-3.562-3.41 0-2.327 2.357-4.342 4.924-4.342h18.859c2.095 0 3.562 1.654 3.562 3.41 0 2.327-2.358 4.342-4.924 4.342h-5.239l-2.545 13.646c-.367 2.068-2.567 3.877-4.924 3.877-2.148 0-3.72-1.447-3.72-3.256 0-.207 0-.414.053-.62z"/>
        <path fill="#FFF" fill-rule="nonzero" d="M169.658 68.413c-7.22.962-12.753-3.413-15.169-10.718-.696-2.104-1.447-3.826-2.222-5.169-3.263-1.642-5.507-4.762-6.352-8.685-.755-3.5-.807-6.49.446-9.241.91-3.287 1.956-5.885 3.304-7.929 1.095-1.658 2.65-3.345 4.723-5.195.731-1.978 1.875-3.826 3.37-5.522a17.556 17.556 0 0 1 5.335-4.114c1.394-2.097 3.334-4.07 5.777-6.032 2.965-2.381 5.832-4.042 8.733-4.914 4.708-1.416 9.666 1.274 11.074 6.009a8.995 8.995 0 0 1 .282 3.84l.348.22c8.038 5.139 13.272 9.897 15.771 14.95 4.954 9.153 4.695 18.016-1.536 24.62l-4.802 9.274c-1.967 6-7.53 8.616-14.479 8.616-3.772 0-5.916-.024-7.231-.12l-7.372.11z"/>
        <path fill="#FF83C1" fill-rule="nonzero" d="M154.505 38.273l3.312 1.638c.652.322 1.713.32 2.36 0l2.132-1.054c.652-.323 1.713-.32 2.36 0l2.132 1.054c.652.322 1.713.32 2.36 0l2.132-1.054c.652-.323 1.713-.32 2.36 0l2.132 1.054c.652.322 1.712.333 2.37.023l2.336-1.1c.658-.31 1.714-.289 2.357.046l1.935 1.007c.644.336 1.699.344 2.346.024l2.132-1.054c.652-.323 1.713-.32 2.36 0l2.132 1.054c.652.322 1.713.32 2.36 0l3.312-1.638-6.996 17.3c-1.098 2.715-4.32 5.283-7.218 5.55 0 0 1.636.255-8.232.255-9.869 0-8.257-.256-8.257-.256-2.89-.35-6.123-2.834-7.221-5.55l-6.996-17.3z"/>
        <g transform="translate(154.237 37.817)">
            <mask id="b" fill="#fff">
                <use xlink:href="#a"/>
            </mask>
            <path fill="#FF5EAF" fill-rule="nonzero" d="M4.31-1.766H8.13l6.513 28.659H11.05L4.31-1.767zm7.637 0h3.818l4.268 28.659h-3.594l-4.492-28.66zm30.546 0l-6.738 28.659H32.16l6.513-28.66h3.819zm-7.637 0l-4.492 28.659h-3.593l4.267-28.66h3.818zm-13.476 0h3.818l-.224 28.659H21.38v-28.66z" mask="url(#b)"/>
        </g>
        <path fill="url(#c)" fill-rule="nonzero" d="M21.43 34.978s-3.209 2.07-5.615 1.81C13.408 36.53 11 34.72 11 34.72s-2.942 1.034-5.616 1.034c-2.674 0-5.207-1.673-5.144-4.975.063-8.732 8.086-13.646 8.086-13.646s.203-2.586 2.508-4.914c2.305-2.327 4.98-2.586 4.98-2.586s2.075-3.62 5.017-5.948C23.773 1.357 28.384.323 28.384.323s-3.21 5.172 4.546 9.569c7.755 4.396 11.766 9.31 12.836 11.38 1.07 2.068 2.674 5.43 1.872 8.534-.802 3.103-2.013 6.729-7.869 6.729-5.855 0-6.84-1.557-6.84-1.557 0-.258-2.673 2.328-6.15 2.328-3.476 0-5.348-2.328-5.348-2.328z" transform="translate(152.918 8.625)"/>
        <g transform="translate(152.918 8.625)">
            <mask id="e" fill="#fff">
                <use xlink:href="#d"/>
            </mask>
            <path fill="#FFEAC0" fill-rule="nonzero" d="M5.263 24.225a32.167 32.167 0 0 0-2.36-1.178c-.278-.126-1.103-.486-1.173-.52l-3.518 7.324c.245.12 1.233.55 1.377.615.615.278 1.182.558 1.78.888 1.648.91 3.26 2.06 4.849 3.554l.202.19.226.16c.887.63 1.825 1.247 2.81 1.85 2.258 1.384 4.655 2.638 7.05 3.747a59.745 59.745 0 0 0 3.253 1.408l2.916-7.587a32.338 32.338 0 0 1-.727-.298c-.618-.26-1.31-.565-2.057-.91-2.131-.988-4.26-2.102-6.227-3.306a41.903 41.903 0 0 1-2.136-1.395 31.86 31.86 0 0 0-6.265-4.542z" mask="url(#e)"/>
        </g>
        <g transform="translate(152.918 8.625)">
            <mask id="g" fill="#fff">
                <use xlink:href="#f"/>
            </mask>
            <path fill="#FFEAC0" fill-rule="nonzero" d="M49.744 28.14c-.06.003-.213.01-.451.018-2.17.072-5.012-.004-8.268-.343-4.804-.502-9.525-1.493-13.9-3.076a46.907 46.907 0 0 1-.713-.264c-2.828-1.075-5.021-2.251-6.924-3.622a29.422 29.422 0 0 1-2.478-2.013c-.52-.466-2.291-2.121-2.32-2.148-3.144-2.894-5.646-4.492-9.549-5.641L2.87 18.857c2.548.75 4.05 1.71 6.359 3.835a265.946 265.946 0 0 0 2.4 2.221 37.36 37.36 0 0 0 3.148 2.551c2.478 1.786 5.294 3.296 8.776 4.62.277.105.555.208.834.31 5.044 1.824 10.392 2.947 15.804 3.511 3.649.381 6.853.466 9.37.383.316-.01.546-.022.682-.03l-.498-8.119z" mask="url(#g)"/>
        </g>
        <g transform="translate(152.918 8.625)">
            <mask id="i" fill="#fff">
                <use xlink:href="#h"/>
            </mask>
            <path fill="#FFEAC0" fill-rule="nonzero" d="M51.36 18.997l-.287-.022a124.096 124.096 0 0 1-4.031-.41c-3.266-.385-6.527-.89-9.547-1.52-4.405-.922-7.88-2.039-9.929-3.247-1.52-.897-2.707-1.923-3.99-3.358-.288-.324-.582-.668-.947-1.105-.15-.18-.806-.974-.986-1.188C18.035 3.826 14.995 1.773 9.4.997L8.293 9.054c3.316.46 4.723 1.41 7.156 4.323l.982 1.185c.418.502.769.91 1.128 1.313 1.801 2.017 3.608 3.578 5.915 4.939 2.982 1.759 7.178 3.107 12.374 4.194 3.279.686 6.766 1.225 10.25 1.636 1.217.144 2.348.261 3.365.355.617.057 1.065.093 1.315.111l.582-8.113z" mask="url(#i)"/>
        </g>
        <g transform="translate(152.918 8.625)">
            <mask id="k" fill="#fff">
                <use xlink:href="#j"/>
            </mask>
            <path fill="#FFEAC0" fill-rule="nonzero" d="M51.447 2.626l-.276-.022a122.895 122.895 0 0 1-3.988-.405c-3.232-.381-6.46-.88-9.44-1.503-4.287-.897-7.653-1.979-9.563-3.105-1.402-.827-2.497-1.773-3.7-3.12a41.125 41.125 0 0 1-.921-1.074l-.986-1.19c-3.785-4.531-7.07-6.749-13.008-7.573L8.127-4.891c2.975.413 4.136 1.197 6.392 3.899L15.501.19c.427.512.785.931 1.155 1.345 1.88 2.104 3.78 3.746 6.204 5.176 3.122 1.841 7.426 3.225 12.74 4.336 3.318.694 6.84 1.238 10.357 1.654 1.227.144 2.368.263 3.396.358.625.057 1.08.094 1.338.113l.756-10.547z" mask="url(#k)"/>
        </g>
        <g transform="translate(152.918 8.625)">
            <mask id="m" fill="#fff">
                <use xlink:href="#l"/>
            </mask>
            <path fill="#FF4343" fill-rule="nonzero" d="M34.914 30.63c0-.576.468-1.044 1.037-1.044h3.304c.573 0 1.038.464 1.038 1.045 0 .577-.468 1.045-1.038 1.045h-3.304a1.039 1.039 0 0 1-1.037-1.045zm-15.599-5.225c0-.577.468-1.045 1.037-1.045h3.305c.573 0 1.037.464 1.037 1.045 0 .577-.468 1.045-1.037 1.045h-3.305a1.039 1.039 0 0 1-1.037-1.045z" mask="url(#m)"/>
        </g>
        <g transform="translate(152.918 8.625)">
            <mask id="o" fill="#fff">
                <use xlink:href="#n"/>
            </mask>
            <path fill="#FFD431" fill-rule="nonzero" d="M23.097 16.848a1.037 1.037 0 0 1 1.424-.359l2.833 1.712a1.045 1.045 0 0 1-1.071 1.791l-2.833-1.711a1.045 1.045 0 0 1-.353-1.433zm-9.144 13.586a1.037 1.037 0 0 1 1.424-.358l2.833 1.711a1.045 1.045 0 0 1-1.07 1.792l-2.834-1.712a1.045 1.045 0 0 1-.353-1.433z" mask="url(#o)"/>
        </g>
        <g transform="translate(152.918 8.625)">
            <mask id="q" fill="#fff">
                <use xlink:href="#p"/>
            </mask>
            <path fill="#3148FF" fill-rule="nonzero" d="M41.053 27.291a1.05 1.05 0 0 1-.001-1.476l2.336-2.35a1.032 1.032 0 0 1 1.469.002 1.05 1.05 0 0 1 .001 1.476l-2.337 2.35c-.405.407-1.06.41-1.468-.002zm-33.44 3.313a1.04 1.04 0 0 1-1.272-.737l-.855-3.21a1.04 1.04 0 0 1 2.008-.541l.855 3.21a1.042 1.042 0 0 1-.736 1.278z" mask="url(#q)"/>
        </g>
        <g transform="translate(152.918 8.625)">
            <mask id="s" fill="#fff">
                <use xlink:href="#r"/>
            </mask>
            <rect width="5.379" height="2.09" x="21.44" y="4.477" fill="#F5A623" fill-rule="nonzero" mask="url(#s)" rx="1.045" transform="rotate(-45 24.13 5.522)"/>
        </g>
        <g transform="translate(152.918 8.625)">
            <mask id="u" fill="#fff">
                <use xlink:href="#t"/>
            </mask>
            <path fill="#7ED321" fill-rule="nonzero" d="M10.281 16.256c.346-.46 1-.551 1.454-.207l2.639 2c.457.347.55.998.203 1.462-.346.461-1 .552-1.454.207l-2.64-2a1.045 1.045 0 0 1-.202-1.462zm22.59 0c.346-.46 1-.551 1.455-.207l2.639 2c.457.347.55.998.202 1.462-.345.461-.999.552-1.453.207l-2.64-2a1.045 1.045 0 0 1-.202-1.462z" mask="url(#u)"/>
        </g>
        <path fill="#FFF" d="M19.65 125h-3.435c-.105 0-.195-.075-.195-.18v-6.465c0-.09.09-.18.195-.18h2.85c.555 0 1.125.06 1.59.405.42.285.705.72.705 1.335 0 .735-.345 1.23-.885 1.485v.045c.975.18 1.455.81 1.455 1.71 0 1.305-1.14 1.845-2.28 1.845zm.225-4.845a.827.827 0 0 0-.405-.735c-.195-.105-.45-.15-.705-.15H17.52v1.77h1.14c.255 0 .54-.015.75-.12.255-.12.465-.36.465-.765zm.525 2.805c0-.345-.165-.645-.54-.81-.24-.135-.54-.15-1.065-.15H17.52v1.935h1.515c.285 0 .54-.03.765-.12.36-.135.6-.39.6-.855zm6.57.9c-.69 0-1.245-.225-1.62-.63s-.585-.975-.585-1.62c0-.615.195-1.14.54-1.53.39-.45.975-.705 1.665-.705.54 0 .99.135 1.5.45.12.075.24.06.285-.045l.45-.84c.045-.09 0-.18-.09-.255-.54-.375-1.29-.63-2.16-.63-1.215 0-2.31.465-3 1.32-.48.57-.765 1.335-.765 2.22 0 1.02.33 1.89.915 2.49.645.69 1.62 1.065 2.82 1.065.87 0 1.68-.225 2.22-.6.09-.075.135-.165.09-.255l-.435-.81c-.045-.09-.15-.135-.285-.045-.495.3-.99.42-1.545.42zm4.965-2.88h3.555c-.03-.48-.165-.855-.45-1.17-.285-.315-.72-.525-1.29-.525-.585 0-1.065.21-1.365.555-.255.3-.42.705-.45 1.14zm2.13 2.955c.735 0 1.35-.225 1.875-.54.135-.075.225-.03.27.045l.405.75c.06.09.015.18-.075.24-.555.39-1.545.72-2.58.72-1.14 0-2.07-.375-2.7-1.05-.6-.63-.945-1.53-.945-2.595 0-.99.36-1.86.96-2.49.57-.6 1.41-.96 2.49-.96 1.17 0 2.04.435 2.565 1.125.495.645.705 1.59.645 2.625-.015.12-.09.21-.21.21h-4.83c.045.54.225.945.51 1.26.375.435.945.66 1.62.66zm-2.025-7.995c.51 0 .915-.405.915-.9s-.405-.9-.915-.9c-.495 0-.9.405-.9.9s.405.9.9.9zm3.15 0c.495 0 .9-.405.9-.9s-.405-.9-.9-.9-.9.405-.9.9.405.9.9.9zm14.535 2.415v5.295h1.545c.105 0 .195.075.195.18v3.465c0 .105-.09.18-.195.18h-1.14a.173.173 0 0 1-.18-.18V125h-6.645v2.295c0 .105-.09.18-.18.18H41.97c-.105 0-.195-.075-.195-.18v-3.465c0-.105.09-.18.195-.18h1.23c.36-.615.585-1.32.72-2.07.15-.825.195-1.74.21-2.625v-.6c0-.09.075-.18.18-.18h5.235c.105 0 .18.09.18.18zm-4.095 1.185c-.045.795-.105 1.605-.255 2.385a6.778 6.778 0 0 1-.63 1.725h3.45v-4.11H45.63zm9.225 0h2.685v5.28c0 .105.075.18.18.18h1.17c.09 0 .18-.075.18-.18v-6.465c0-.09-.09-.18-.18-.18h-5.37c-.12 0-.21.09-.21.21v.705c0 1.29-.045 2.505-.33 3.615-.18.675-.45 1.32-.84 1.92-.135.24-.06.375.135.375h.945c.225 0 .315-.045.435-.195.39-.48.645-1.125.81-1.845.255-1.065.33-2.31.39-3.42zm8.28-1.365h2.925c.105 0 .18.09.18.18v6.465c0 .105-.075.18-.18.18h-1.125a.182.182 0 0 1-.18-.18v-2.19H63.48l-1.5 2.22c-.075.135-.165.15-.3.15h-1.14c-.18 0-.18-.12-.105-.27l1.74-2.43c-.39-.105-.75-.24-1.05-.555-.315-.3-.51-.765-.51-1.38 0-.9.39-1.53 1.035-1.875.405-.21.915-.315 1.485-.315zm1.62 1.245H63.3c-.345 0-.675.06-.9.255-.165.15-.27.375-.27.72 0 .36.12.615.315.75.225.18.555.24.9.24h1.41v-1.965zm12.255-1.245c-.165 0-.255.06-.345.18l-2.115 2.535h-.855v-2.535c0-.09-.09-.18-.195-.18h-1.155c-.105 0-.195.09-.195.18v6.465c0 .105.09.18.195.18H73.5c.105 0 .195-.075.195-.18v-2.58h.84l2.175 2.58c.105.135.195.18.36.18h1.395c.165 0 .24-.165.075-.315l-2.7-3.195 2.61-2.985c.15-.18.09-.33-.09-.33h-1.35zm3.99 3.42c0 .645.21 1.185.585 1.605.375.405.915.66 1.545.66.615 0 1.155-.255 1.53-.66.375-.42.6-.96.6-1.605s-.225-1.185-.6-1.605a2.068 2.068 0 0 0-1.53-.66c-.63 0-1.17.255-1.545.66-.375.42-.585.96-.585 1.605zm-1.53 0c0-1.05.405-1.935 1.065-2.565.66-.615 1.575-.99 2.595-.99 1.005 0 1.935.375 2.595.99.66.63 1.05 1.515 1.05 2.565 0 1.065-.375 1.965-1.05 2.58-.645.615-1.59.975-2.595.975-1.02 0-1.95-.36-2.595-.975-.675-.615-1.065-1.515-1.065-2.58zm14.115-3.42c-.105 0-.195.09-.195.18v2.535h-3.435v-2.535c0-.09-.09-.18-.195-.18h-1.155c-.105 0-.195.09-.195.18v6.465c0 .105.09.18.195.18h1.155c.105 0 .195-.075.195-.18v-2.58h3.435v2.58c0 .105.09.18.195.18h1.155c.09 0 .18-.075.18-.18v-6.465c0-.09-.09-.18-.18-.18h-1.155zm10.68.18v5.295h1.545c.105 0 .195.075.195.18v3.465c0 .105-.09.18-.195.18h-1.14a.173.173 0 0 1-.18-.18V125h-6.645v2.295c0 .105-.09.18-.18.18H96.51c-.105 0-.195-.075-.195-.18v-3.465c0-.105.09-.18.195-.18h1.23c.36-.615.585-1.32.72-2.07.15-.825.195-1.74.21-2.625v-.6c0-.09.075-.18.18-.18h5.235c.105 0 .18.09.18.18zm-4.095 1.185c-.045.795-.105 1.605-.255 2.385a6.778 6.778 0 0 1-.63 1.725h3.45v-4.11h-2.565zm13.935-1.185c0-.09-.075-.18-.18-.18h-1.17c-.105 0-.195.09-.195.18v.72l-3.675 3.45v-4.17c0-.09-.075-.18-.18-.18h-1.17c-.105 0-.195.09-.195.18v6.465c0 .105.09.18.195.18h1.17c.105 0 .18-.075.18-.18v-.69l3.675-3.435v4.125c0 .105.09.18.195.18h1.17c.105 0 .18-.075.18-.18v-6.465zm1.335-.18c-.09 0-.18.09-.18.18v.99c0 .105.09.195.18.195h2.34v5.28c0 .105.09.18.195.18h1.155c.105 0 .18-.075.18-.18v-5.28h2.34c.105 0 .195-.09.195-.195v-.99c0-.09-.09-.18-.195-.18h-6.21zm8.775 2.805h3.555c-.03-.48-.165-.855-.45-1.17-.285-.315-.72-.525-1.29-.525-.585 0-1.065.21-1.365.555-.255.3-.42.705-.45 1.14zm2.13 2.955c.735 0 1.35-.225 1.875-.54.135-.075.225-.03.27.045l.405.75c.06.09.015.18-.075.24-.555.39-1.545.72-2.58.72-1.14 0-2.07-.375-2.7-1.05-.6-.63-.945-1.53-.945-2.595 0-.99.36-1.86.96-2.49.57-.6 1.41-.96 2.49-.96 1.17 0 2.04.435 2.565 1.125.495.645.705 1.59.645 2.625-.015.12-.09.21-.21.21h-4.83c.045.54.225.945.51 1.26.375.435.945.66 1.62.66zm6.06-4.56v4.29c.345.165.69.225 1.17.225.525 0 1.11-.135 1.56-.57.375-.345.6-.93.6-1.725 0-.705-.21-1.26-.585-1.65-.42-.42-1.02-.645-1.725-.645-.33 0-.705.03-1.02.075zm-1.335-1.125c.57-.12 1.41-.195 2.205-.195 1.215 0 2.28.33 3 1.02.615.585 1.005 1.425 1.005 2.52s-.33 1.89-.84 2.46c-.705.78-1.755 1.095-2.715 1.095-.525 0-.915-.045-1.32-.21v3.375c0 .09-.075.18-.18.18h-1.17c-.105 0-.195-.09-.195-.18v-9.84c0-.105.06-.195.21-.225zm10.275.975c-.735 0-1.41.3-1.965.6-.135.075-.225.06-.27-.06l-.33-.75c-.045-.105-.045-.165.075-.24.69-.45 1.68-.72 2.685-.72.675 0 1.515.12 2.085.75.36.405.57.96.57 1.83v4.185c0 .105-.075.18-.18.18h-1.02a.182.182 0 0 1-.18-.18v-.18h-.06c-.645.405-1.215.51-1.935.51-.615 0-1.2-.165-1.635-.51-.435-.345-.72-.87-.72-1.545 0-.915.54-1.44 1.32-1.755.87-.345 2.01-.45 2.865-.51v-.18c0-.495-.075-.795-.27-1.035-.24-.3-.63-.39-1.035-.39zm-.045 4.8c.45 0 .915-.135 1.35-.39v-1.755c-1.62.09-2.715.39-2.715 1.185 0 .66.66.96 1.365.96z"/>
    </g>
</svg>
